# xmcd CD database file
#
# Track frame offsets:
#	150
#	19713
#	35945
#	49686
#	66954
#	82721
#	95306
#	110523
#	125426
#	142562
#	156164
#	171687
#	187590
#	219887
#
# Disc length: 3908 seconds
#
# Revision: 7
# Processed by: cddbd v1.5.2PL0 Copyright (c) Steve Scherf et al.
# Submitted via: CDex 1.51
#
DISCID=b00f420e
DTITLE=Dierks Bentley - Dierks Bentley
DYEAR=2003
DGENRE=Country
TTITLE0=What Was I Thinkin'
TTITLE1=Wish It Would Break
TTITLE2=Forget About You
TTITLE3=I Can Only Think Of One
TTITLE4=My Last Name
TTITLE5=Bartenders, Etc
TTITLE6=Is Anybody Loving You These Days
TTITLE7=My Love Will Follow You
TTITLE8=How Am I Doin'
TTITLE9=Distant Shore
TTITLE10=I Bought The Shoes
TTITLE11=Whiskey Tears
TTITLE12=Train Travelin' (With The Del McCoury Band)
TTITLE13=Data
EXTD=YEAR: 2003
EXTT0=
EXTT1=
EXTT2=
EXTT3=
EXTT4=
EXTT5=
EXTT6=
EXTT7=
EXTT8=
EXTT9=
EXTT10=
EXTT11=
EXTT12=
EXTT13=
PLAYORDER=
